<?xml version="1.0" encoding="UTF-8" standalone="no"?><svg xmlns="http://www.w3.org/2000/svg" xmlns:xlink="http://www.w3.org/1999/xlink" contentStyleType="text/css" height="417px" preserveAspectRatio="none" style="width:799px;height:417px;background:#FFFFFF;" version="1.1" viewBox="0 0 799 417" width="799px" zoomAndPan="magnify"><defs/><g><!--MD5=[9c404658779a1ec2b42fa794d6af9574]
cluster Logik--><g id="cluster_Logik"><rect fill="none" height="240" rx="2.5" ry="2.5" style="stroke:#181818;stroke-width:1.0;" width="534" x="7" y="171"/><text fill="#000000" font-family="sans-serif" font-size="14" font-weight="bold" lengthAdjust="spacing" textLength="42" x="253" y="185.9951">Logik</text></g><!--MD5=[d64883541e3d62e3241c4d12decf100d]
cluster Application--><g id="cluster_Application"><rect fill="none" height="115" rx="2.5" ry="2.5" style="stroke:#181818;stroke-width:1.0;" width="212" x="581" y="7"/><text fill="#000000" font-family="sans-serif" font-size="14" font-weight="bold" lengthAdjust="spacing" textLength="87" x="643.5" y="21.9951">Application</text></g><!--MD5=[9ddaf8ee8bcae11a9a9232f969198262]
cluster Infrastructure--><g id="cluster_Infrastructure"><rect fill="none" height="240" rx="2.5" ry="2.5" style="stroke:#181818;stroke-width:1.0;" width="156" x="565" y="171"/><text fill="#000000" font-family="sans-serif" font-size="14" font-weight="bold" lengthAdjust="spacing" textLength="110" x="588" y="185.9951">Infrastructure</text></g><!--MD5=[1d75ca9797f193587737094bd91d885d]
class BlockEnum--><g id="elem_BlockEnum"><rect codeLine="2" fill="#F1F1F1" height="48" id="BlockEnum" rx="2.5" ry="2.5" style="stroke:#181818;stroke-width:0.5;" width="110" x="190" y="347"/><ellipse cx="205" cy="363" fill="#EB937F" rx="11" ry="11" style="stroke:#181818;stroke-width:1.0;"/><path d="M209.1094,369 L201.3906,369 L201.3906,356.6094 L209.1094,356.6094 L209.1094,358.7656 L203.8438,358.7656 L203.8438,361.4375 L208.6094,361.4375 L208.6094,363.5938 L203.8438,363.5938 L203.8438,366.8438 L209.1094,366.8438 L209.1094,369 Z " fill="#000000"/><text fill="#000000" font-family="sans-serif" font-size="14" lengthAdjust="spacing" textLength="78" x="219" y="367.8467">BlockEnum</text><line style="stroke:#181818;stroke-width:0.5;" x1="191" x2="299" y1="379" y2="379"/><line style="stroke:#181818;stroke-width:0.5;" x1="191" x2="299" y1="387" y2="387"/></g><!--MD5=[d46739897b9f45c39c57c7330891492c]
class ProcessResult--><g id="elem_ProcessResult"><rect codeLine="3" fill="#F1F1F1" height="48" id="ProcessResult" rx="2.5" ry="2.5" style="stroke:#181818;stroke-width:0.5;" width="132" x="23" y="347"/><ellipse cx="38" cy="363" fill="#EB937F" rx="11" ry="11" style="stroke:#181818;stroke-width:1.0;"/><path d="M42.1094,369 L34.3906,369 L34.3906,356.6094 L42.1094,356.6094 L42.1094,358.7656 L36.8438,358.7656 L36.8438,361.4375 L41.6094,361.4375 L41.6094,363.5938 L36.8438,363.5938 L36.8438,366.8438 L42.1094,366.8438 L42.1094,369 Z " fill="#000000"/><text fill="#000000" font-family="sans-serif" font-size="14" lengthAdjust="spacing" textLength="100" x="52" y="367.8467">ProcessResult</text><line style="stroke:#181818;stroke-width:0.5;" x1="24" x2="154" y1="379" y2="379"/><line style="stroke:#181818;stroke-width:0.5;" x1="24" x2="154" y1="387" y2="387"/></g><!--MD5=[f3037d698899e64633f4bd5817fffc61]
class BlockValidator--><g id="elem_BlockValidator"><rect codeLine="4" fill="#F1F1F1" height="64.2969" id="BlockValidator" rx="2.5" ry="2.5" style="stroke:#181818;stroke-width:0.5;" width="129" x="274.5" y="206"/><ellipse cx="289.5" cy="222" fill="#ADD1B2" rx="11" ry="11" style="stroke:#181818;stroke-width:1.0;"/><path d="M292.4688,227.6406 Q291.8906,227.9375 291.25,228.0781 Q290.6094,228.2344 289.9063,228.2344 Q287.4063,228.2344 286.0781,226.5938 Q284.7656,224.9375 284.7656,221.8125 Q284.7656,218.6875 286.0781,217.0313 Q287.4063,215.375 289.9063,215.375 Q290.6094,215.375 291.25,215.5313 Q291.9063,215.6875 292.4688,215.9844 L292.4688,218.7031 Q291.8438,218.125 291.25,217.8594 Q290.6563,217.5781 290.0313,217.5781 Q288.6875,217.5781 288,218.6563 Q287.3125,219.7188 287.3125,221.8125 Q287.3125,223.9063 288,224.9844 Q288.6875,226.0469 290.0313,226.0469 Q290.6563,226.0469 291.25,225.7813 Q291.8438,225.5 292.4688,224.9219 L292.4688,227.6406 Z " fill="#000000"/><text fill="#000000" font-family="sans-serif" font-size="14" lengthAdjust="spacing" textLength="97" x="303.5" y="226.8467">BlockValidator</text><line style="stroke:#181818;stroke-width:0.5;" x1="275.5" x2="402.5" y1="238" y2="238"/><line style="stroke:#181818;stroke-width:0.5;" x1="275.5" x2="402.5" y1="246" y2="246"/><text fill="#000000" font-family="sans-serif" font-size="14" lengthAdjust="spacing" textLength="62" x="280.5" y="262.9951">validate()</text></g><!--MD5=[c42551639e0f4b2f27205a0ceb7c90af]
class BlockInsertInstructions--><g id="elem_BlockInsertInstructions"><rect codeLine="7" fill="#F1F1F1" height="48" id="BlockInsertInstructions" rx="2.5" ry="2.5" style="stroke:#181818;stroke-width:0.5;" width="190" x="335" y="347"/><ellipse cx="350" cy="363" fill="#F1F1F1" rx="11" ry="11" style="stroke:#181818;stroke-width:1.0;"/><path d="M349.4844,363.5625 Q347.625,362.8594 346.9688,362.0938 Q346.3281,361.3125 346.3281,360 Q346.3281,358.3125 347.4063,357.3438 Q348.4844,356.375 350.3594,356.375 Q351.2188,356.375 352.0625,356.5781 Q352.9219,356.7656 353.7656,357.1563 L353.7656,359.5469 Q352.9844,358.9844 352.1563,358.7031 Q351.3438,358.4063 350.5469,358.4063 Q349.6719,358.4063 349.1875,358.7656 Q348.7188,359.125 348.7188,359.7813 Q348.7188,360.2969 349.0625,360.6406 Q349.4063,360.9688 350.5,361.375 L351.5625,361.7813 Q353.0469,362.3281 353.75,363.2344 Q354.4688,364.1406 354.4688,365.5156 Q354.4688,367.3906 353.3594,368.3125 Q352.25,369.2344 350,369.2344 Q349.0781,369.2344 348.1563,369.0156 Q347.2344,368.7969 346.375,368.375 L346.375,365.8438 Q347.3438,366.5313 348.2656,366.875 Q349.1875,367.2188 350.0781,367.2188 Q350.9844,367.2188 351.4844,366.8125 Q351.9844,366.3906 351.9844,365.6563 Q351.9844,365.0938 351.6406,364.6875 Q351.3125,364.2656 350.6875,364.0156 L349.4844,363.5625 Z " fill="#000000"/><text fill="#000000" font-family="sans-serif" font-size="14" lengthAdjust="spacing" textLength="158" x="364" y="367.8467">BlockInsertInstructions</text><line style="stroke:#181818;stroke-width:0.5;" x1="336" x2="524" y1="379" y2="379"/><line style="stroke:#181818;stroke-width:0.5;" x1="336" x2="524" y1="387" y2="387"/></g><!--MD5=[6483236d8ad0ea43076de864385b8cdc]
class BlockValidatorFactory--><g id="elem_BlockValidatorFactory"><rect codeLine="11" fill="#F1F1F1" height="64.2969" id="BlockValidatorFactory" rx="2.5" ry="2.5" style="stroke:#181818;stroke-width:0.5;" width="179" x="597.5" y="42"/><ellipse cx="612.5" cy="58" fill="#ADD1B2" rx="11" ry="11" style="stroke:#181818;stroke-width:1.0;"/><path d="M615.4688,63.6406 Q614.8906,63.9375 614.25,64.0781 Q613.6094,64.2344 612.9063,64.2344 Q610.4063,64.2344 609.0781,62.5938 Q607.7656,60.9375 607.7656,57.8125 Q607.7656,54.6875 609.0781,53.0313 Q610.4063,51.375 612.9063,51.375 Q613.6094,51.375 614.25,51.5313 Q614.9063,51.6875 615.4688,51.9844 L615.4688,54.7031 Q614.8438,54.125 614.25,53.8594 Q613.6563,53.5781 613.0313,53.5781 Q611.6875,53.5781 611,54.6563 Q610.3125,55.7188 610.3125,57.8125 Q610.3125,59.9063 611,60.9844 Q611.6875,62.0469 613.0313,62.0469 Q613.6563,62.0469 614.25,61.7813 Q614.8438,61.5 615.4688,60.9219 L615.4688,63.6406 Z " fill="#000000"/><text fill="#000000" font-family="sans-serif" font-size="14" lengthAdjust="spacing" textLength="147" x="626.5" y="62.8467">BlockValidatorFactory</text><line style="stroke:#181818;stroke-width:0.5;" x1="598.5" x2="775.5" y1="74" y2="74"/><line style="stroke:#181818;stroke-width:0.5;" x1="598.5" x2="775.5" y1="82" y2="82"/><text fill="#000000" font-family="sans-serif" font-size="14" lengthAdjust="spacing" textLength="118" x="603.5" y="98.9951">create_validator()</text></g><!--MD5=[c2c49fb88d93ed19488b675712d5736a]
class Ledger--><g id="elem_Ledger"><rect codeLine="17" fill="#F1F1F1" height="48" id="Ledger" rx="2.5" ry="2.5" style="stroke:#181818;stroke-width:0.5;" width="80" x="614" y="347"/><ellipse cx="629" cy="363" fill="#ADD1B2" rx="11" ry="11" style="stroke:#181818;stroke-width:1.0;"/><path d="M631.9688,368.6406 Q631.3906,368.9375 630.75,369.0781 Q630.1094,369.2344 629.4063,369.2344 Q626.9063,369.2344 625.5781,367.5938 Q624.2656,365.9375 624.2656,362.8125 Q624.2656,359.6875 625.5781,358.0313 Q626.9063,356.375 629.4063,356.375 Q630.1094,356.375 630.75,356.5313 Q631.4063,356.6875 631.9688,356.9844 L631.9688,359.7031 Q631.3438,359.125 630.75,358.8594 Q630.1563,358.5781 629.5313,358.5781 Q628.1875,358.5781 627.5,359.6563 Q626.8125,360.7188 626.8125,362.8125 Q626.8125,364.9063 627.5,365.9844 Q628.1875,367.0469 629.5313,367.0469 Q630.1563,367.0469 630.75,366.7813 Q631.3438,366.5 631.9688,365.9219 L631.9688,368.6406 Z " fill="#000000"/><text fill="#000000" font-family="sans-serif" font-size="14" lengthAdjust="spacing" textLength="48" x="643" y="367.8467">Ledger</text><line style="stroke:#181818;stroke-width:0.5;" x1="615" x2="693" y1="379" y2="379"/><line style="stroke:#181818;stroke-width:0.5;" x1="615" x2="693" y1="387" y2="387"/></g><!--MD5=[1c6bfd819e8a039f987552feb96b3419]
class BlockInserter--><g id="elem_BlockInserter"><rect codeLine="18" fill="#F1F1F1" height="64.2969" id="BlockInserter" rx="2.5" ry="2.5" style="stroke:#181818;stroke-width:0.5;" width="123" x="581.5" y="206"/><ellipse cx="596.5" cy="222" fill="#ADD1B2" rx="11" ry="11" style="stroke:#181818;stroke-width:1.0;"/><path d="M599.4688,227.6406 Q598.8906,227.9375 598.25,228.0781 Q597.6094,228.2344 596.9063,228.2344 Q594.4063,228.2344 593.0781,226.5938 Q591.7656,224.9375 591.7656,221.8125 Q591.7656,218.6875 593.0781,217.0313 Q594.4063,215.375 596.9063,215.375 Q597.6094,215.375 598.25,215.5313 Q598.9063,215.6875 599.4688,215.9844 L599.4688,218.7031 Q598.8438,218.125 598.25,217.8594 Q597.6563,217.5781 597.0313,217.5781 Q595.6875,217.5781 595,218.6563 Q594.3125,219.7188 594.3125,221.8125 Q594.3125,223.9063 595,224.9844 Q595.6875,226.0469 597.0313,226.0469 Q597.6563,226.0469 598.25,225.7813 Q598.8438,225.5 599.4688,224.9219 L599.4688,227.6406 Z " fill="#000000"/><text fill="#000000" font-family="sans-serif" font-size="14" lengthAdjust="spacing" textLength="91" x="610.5" y="226.8467">BlockInserter</text><line style="stroke:#181818;stroke-width:0.5;" x1="582.5" x2="703.5" y1="238" y2="238"/><line style="stroke:#181818;stroke-width:0.5;" x1="582.5" x2="703.5" y1="246" y2="246"/><text fill="#000000" font-family="sans-serif" font-size="14" lengthAdjust="spacing" textLength="49" x="587.5" y="262.9951">insert()</text></g><!--MD5=[cb787afcde990c0b2948307543807d7d]
link BlockValidatorFactory to Ledger--><g id="link_BlockValidatorFactory_Ledger"><path codeLine="23" d="M702.81,106.3 C710.23,122.73 718.26,143.46 722,163 C730.95,209.71 735.99,224.55 722,270 C713.62,297.24 695.01,323.7 679.37,342.56 " fill="none" id="BlockValidatorFactory-to-Ledger" style="stroke:#181818;stroke-width:1.0;"/><polygon fill="#181818" points="675.88,346.7,684.7398,342.3984,679.1033,342.8777,678.6241,337.2411,675.88,346.7" style="stroke:#181818;stroke-width:1.0;"/></g><!--MD5=[0f977550c5fb357da117c2774011fad2]
link BlockValidatorFactory to BlockValidator--><g id="link_BlockValidatorFactory_BlockValidator"><path codeLine="24" d="M620.31,106.04 C559.53,134.34 470.09,175.98 408.45,204.67 " fill="none" id="BlockValidatorFactory-to-BlockValidator" style="stroke:#181818;stroke-width:1.0;stroke-dasharray:7.0,7.0;"/><polygon fill="#181818" points="403.69,206.88,413.5372,206.6971,408.2206,204.7648,410.1528,199.4482,403.69,206.88" style="stroke:#181818;stroke-width:1.0;"/><text fill="#000000" font-family="sans-serif" font-size="13" lengthAdjust="spacing" textLength="48" x="545" y="151.0669">creates</text></g><!--MD5=[5092a3b7c73e6f414ac0f176ffc789e2]
link BlockValidator to BlockEnum--><g id="link_BlockValidator_BlockEnum"><path codeLine="25" d="M316.72,270.05 C300.84,292.18 279.7,321.64 264.49,342.84 " fill="none" id="BlockValidator-to-BlockEnum" style="stroke:#181818;stroke-width:1.0;"/><polygon fill="#181818" points="261.53,346.97,270.021,341.9798,264.4402,342.9042,263.5158,337.3234,261.53,346.97" style="stroke:#181818;stroke-width:1.0;"/></g><!--MD5=[ca4ade3058aee2301cf627aa35b86b7d]
link BlockValidator to BlockInsertInstructions--><g id="link_BlockValidator_BlockInsertInstructions"><path codeLine="26" d="M360.57,270.05 C375.94,292.18 396.41,321.64 411.13,342.84 " fill="none" id="BlockValidator-to-BlockInsertInstructions" style="stroke:#181818;stroke-width:1.0;stroke-dasharray:7.0,7.0;"/><polygon fill="#181818" points="414,346.97,412.1361,337.2991,411.1413,342.8678,405.5726,341.873,414,346.97" style="stroke:#181818;stroke-width:1.0;"/><text fill="#000000" font-family="sans-serif" font-size="13" lengthAdjust="spacing" textLength="46" x="393" y="313.0669">returns</text></g><!--MD5=[364ffa3d27fc34980df3ffad3ba9ca49]
link BlockValidator to ProcessResult--><g id="link_BlockValidator_ProcessResult"><path codeLine="27" d="M279.75,270.05 C236.46,292.73 178.46,323.12 137.83,344.42 " fill="none" id="BlockValidator-to-ProcessResult" style="stroke:#181818;stroke-width:1.0;stroke-dasharray:7.0,7.0;"/><polygon fill="#181818" points="132.96,346.97,142.7875,346.3219,137.3855,344.643,139.0644,339.241,132.96,346.97" style="stroke:#181818;stroke-width:1.0;"/><text fill="#000000" font-family="sans-serif" font-size="13" lengthAdjust="spacing" textLength="46" x="223" y="313.0669">returns</text></g><!--MD5=[6a01bc4a6d18f78684de42bf52477530]
link BlockInserter to BlockInsertInstructions--><g id="link_BlockInserter_BlockInsertInstructions"><path codeLine="28" d="M592.52,270.05 C555.79,292.64 506.62,322.87 472.02,344.16 " fill="none" id="BlockInserter-to-BlockInsertInstructions" style="stroke:#181818;stroke-width:1.0;"/><polygon fill="#181818" points="467.45,346.97,477.2093,345.6452,471.7044,344.3431,473.0064,338.8382,467.45,346.97" style="stroke:#181818;stroke-width:1.0;"/></g><!--MD5=[4d814a0d801860650e4ed79c8978c272]
link BlockInserter to Ledger--><g id="link_BlockInserter_Ledger"><path codeLine="29" d="M645.61,270.05 C647.43,291.81 649.86,320.66 651.63,341.77 " fill="none" id="BlockInserter-to-Ledger" style="stroke:#181818;stroke-width:1.0;"/><polygon fill="#181818" points="652.07,346.97,655.311,337.6697,651.656,341.9872,647.3385,338.3321,652.07,346.97" style="stroke:#181818;stroke-width:1.0;"/></g><!--MD5=[ba03780837bb233dc541e01f88b65ffb]
link BlockInserter to BlockEnum--><g id="link_BlockInserter_BlockEnum"><path codeLine="30" d="M581.39,262.4 C537.95,278.56 478.26,300.1 425,317 C377.52,332.07 364.74,332.75 317,347 C313.2,348.13 309.29,349.32 305.35,350.53 " fill="none" id="BlockInserter-to-BlockEnum" style="stroke:#181818;stroke-width:1.0;"/><polygon fill="#181818" points="300.36,352.08,310.1391,353.2502,305.138,350.6066,307.7816,345.6054,300.36,352.08" style="stroke:#181818;stroke-width:1.0;"/></g><!--MD5=[1575bf95b82781f826030384ac061b93]
@startuml Block Insertion
package Logik <<Rectangle>>{
    enum BlockEnum
    enum ProcessResult
    class BlockValidator{
        validate()
    }
    struct BlockInsertInstructions
}

package Application <<Rectangle>>{
    class BlockValidatorFactory{
        create_validator()
    }
}

package Infrastructure <<Rectangle>>{
class Ledger
class BlockInserter{
    insert()
}
}

BlockValidatorFactory - -> Ledger
BlockValidatorFactory ..> BlockValidator: creates
BlockValidator - -> BlockEnum
BlockValidator ..> BlockInsertInstructions: returns
BlockValidator ..> ProcessResult: returns
BlockInserter - -> BlockInsertInstructions
BlockInserter - -> Ledger
BlockInserter - -> BlockEnum
@enduml

PlantUML version 1.2022.13(Sat Nov 19 13:22:17 UTC 2022)
(GPL source distribution)
Java Runtime: OpenJDK Runtime Environment
JVM: OpenJDK 64-Bit Server VM
Default Encoding: UTF-8
Language: en
Country: null
--></g></svg>