<?xml version="1.0" encoding="UTF-8" standalone="no"?><svg xmlns="http://www.w3.org/2000/svg" xmlns:xlink="http://www.w3.org/1999/xlink" contentStyleType="text/css" height="705px" preserveAspectRatio="none" style="width:708px;height:705px;background:#FFFFFF;" version="1.1" viewBox="0 0 708 705" width="708px" zoomAndPan="magnify"><defs/><g><!--MD5=[9c404658779a1ec2b42fa794d6af9574]
cluster Logik--><g id="cluster_Logik"><rect fill="none" height="382" rx="2.5" ry="2.5" style="stroke:#181818;stroke-width:1.0;" width="395" x="7" y="317"/><text fill="#000000" font-family="sans-serif" font-size="14" font-weight="bold" lengthAdjust="spacing" textLength="42" x="183.5" y="331.9951">Logik</text></g><!--MD5=[9ddaf8ee8bcae11a9a9232f969198262]
cluster Infrastructure--><g id="cluster_Infrastructure"><rect fill="none" height="271" rx="2.5" ry="2.5" style="stroke:#181818;stroke-width:1.0;" width="264" x="438" y="153"/><text fill="#000000" font-family="sans-serif" font-size="14" font-weight="bold" lengthAdjust="spacing" textLength="110" x="515" y="167.9951">Infrastructure</text></g><!--MD5=[d64883541e3d62e3241c4d12decf100d]
cluster Application--><g id="cluster_Application"><rect fill="none" height="261" rx="2.5" ry="2.5" style="stroke:#181818;stroke-width:1.0;" width="228" x="140" y="7"/><text fill="#000000" font-family="sans-serif" font-size="14" font-weight="bold" lengthAdjust="spacing" textLength="87" x="210.5" y="21.9951">Application</text></g><!--MD5=[58634d32f7cc88bc84645ae77ef79f17]
class RollbackStep--><g id="elem_RollbackStep"><rect codeLine="2" fill="#F1F1F1" height="80.5938" id="RollbackStep" rx="2.5" ry="2.5" style="stroke:#181818;stroke-width:0.5;" width="218" x="23" y="493"/><ellipse cx="82.75" cy="509" fill="#EB937F" rx="11" ry="11" style="stroke:#181818;stroke-width:1.0;"/><path d="M86.8594,515 L79.1406,515 L79.1406,502.6094 L86.8594,502.6094 L86.8594,504.7656 L81.5938,504.7656 L81.5938,507.4375 L86.3594,507.4375 L86.3594,509.5938 L81.5938,509.5938 L81.5938,512.8438 L86.8594,512.8438 L86.8594,515 Z " fill="#000000"/><text fill="#000000" font-family="sans-serif" font-size="14" lengthAdjust="spacing" textLength="90" x="103.25" y="513.8467">RollbackStep</text><line style="stroke:#181818;stroke-width:0.5;" x1="24" x2="240" y1="525" y2="525"/><text fill="#000000" font-family="sans-serif" font-size="14" lengthAdjust="spacing" textLength="97" x="29" y="541.9951">RollBackBlock</text><text fill="#000000" font-family="sans-serif" font-size="14" lengthAdjust="spacing" textLength="206" x="29" y="558.292">RequestDependencyRollback</text><line style="stroke:#181818;stroke-width:0.5;" x1="24" x2="240" y1="565.5938" y2="565.5938"/></g><!--MD5=[0d460f7363df310216ba063aa935b11b]
class RollbackInstructions--><g id="elem_RollbackInstructions"><rect codeLine="6" fill="#F1F1F1" height="48" id="RollbackInstructions" rx="2.5" ry="2.5" style="stroke:#181818;stroke-width:0.5;" width="171" x="130.5" y="635"/><ellipse cx="145.5" cy="651" fill="#F1F1F1" rx="11" ry="11" style="stroke:#181818;stroke-width:1.0;"/><path d="M144.9844,651.5625 Q143.125,650.8594 142.4688,650.0938 Q141.8281,649.3125 141.8281,648 Q141.8281,646.3125 142.9063,645.3438 Q143.9844,644.375 145.8594,644.375 Q146.7188,644.375 147.5625,644.5781 Q148.4219,644.7656 149.2656,645.1563 L149.2656,647.5469 Q148.4844,646.9844 147.6563,646.7031 Q146.8438,646.4063 146.0469,646.4063 Q145.1719,646.4063 144.6875,646.7656 Q144.2188,647.125 144.2188,647.7813 Q144.2188,648.2969 144.5625,648.6406 Q144.9063,648.9688 146,649.375 L147.0625,649.7813 Q148.5469,650.3281 149.25,651.2344 Q149.9688,652.1406 149.9688,653.5156 Q149.9688,655.3906 148.8594,656.3125 Q147.75,657.2344 145.5,657.2344 Q144.5781,657.2344 143.6563,657.0156 Q142.7344,656.7969 141.875,656.375 L141.875,653.8438 Q142.8438,654.5313 143.7656,654.875 Q144.6875,655.2188 145.5781,655.2188 Q146.4844,655.2188 146.9844,654.8125 Q147.4844,654.3906 147.4844,653.6563 Q147.4844,653.0938 147.1406,652.6875 Q146.8125,652.2656 146.1875,652.0156 L144.9844,651.5625 Z " fill="#000000"/><text fill="#000000" font-family="sans-serif" font-size="14" lengthAdjust="spacing" textLength="139" x="159.5" y="655.8467">RollbackInstructions</text><line style="stroke:#181818;stroke-width:0.5;" x1="131.5" x2="300.5" y1="667" y2="667"/><line style="stroke:#181818;stroke-width:0.5;" x1="131.5" x2="300.5" y1="675" y2="675"/></g><!--MD5=[1d75ca9797f193587737094bd91d885d]
class BlockEnum--><g id="elem_BlockEnum"><rect codeLine="7" fill="#F1F1F1" height="48" id="BlockEnum" rx="2.5" ry="2.5" style="stroke:#181818;stroke-width:0.5;" width="110" x="276" y="509.5"/><ellipse cx="291" cy="525.5" fill="#EB937F" rx="11" ry="11" style="stroke:#181818;stroke-width:1.0;"/><path d="M295.1094,531.5 L287.3906,531.5 L287.3906,519.1094 L295.1094,519.1094 L295.1094,521.2656 L289.8438,521.2656 L289.8438,523.9375 L294.6094,523.9375 L294.6094,526.0938 L289.8438,526.0938 L289.8438,529.3438 L295.1094,529.3438 L295.1094,531.5 Z " fill="#000000"/><text fill="#000000" font-family="sans-serif" font-size="14" lengthAdjust="spacing" textLength="78" x="305" y="530.3467">BlockEnum</text><line style="stroke:#181818;stroke-width:0.5;" x1="277" x2="385" y1="541.5" y2="541.5"/><line style="stroke:#181818;stroke-width:0.5;" x1="277" x2="385" y1="549.5" y2="549.5"/></g><!--MD5=[7ac0e38b5594cbe658aba08941a17b47]
class RollbackPlanner--><g id="elem_RollbackPlanner"><rect codeLine="8" fill="#F1F1F1" height="64.2969" id="RollbackPlanner" rx="2.5" ry="2.5" style="stroke:#181818;stroke-width:0.5;" width="168" x="98" y="352"/><ellipse cx="124.7" cy="368" fill="#ADD1B2" rx="11" ry="11" style="stroke:#181818;stroke-width:1.0;"/><path d="M127.6688,373.6406 Q127.0906,373.9375 126.45,374.0781 Q125.8094,374.2344 125.1063,374.2344 Q122.6063,374.2344 121.2781,372.5938 Q119.9656,370.9375 119.9656,367.8125 Q119.9656,364.6875 121.2781,363.0313 Q122.6063,361.375 125.1063,361.375 Q125.8094,361.375 126.45,361.5313 Q127.1063,361.6875 127.6688,361.9844 L127.6688,364.7031 Q127.0438,364.125 126.45,363.8594 Q125.8563,363.5781 125.2313,363.5781 Q123.8875,363.5781 123.2,364.6563 Q122.5125,365.7188 122.5125,367.8125 Q122.5125,369.9063 123.2,370.9844 Q123.8875,372.0469 125.2313,372.0469 Q125.8563,372.0469 126.45,371.7813 Q127.0438,371.5 127.6688,370.9219 L127.6688,373.6406 Z " fill="#000000"/><text fill="#000000" font-family="sans-serif" font-size="14" lengthAdjust="spacing" textLength="110" x="141.3" y="372.8467">RollbackPlanner</text><line style="stroke:#181818;stroke-width:0.5;" x1="99" x2="265" y1="384" y2="384"/><line style="stroke:#181818;stroke-width:0.5;" x1="99" x2="265" y1="392" y2="392"/><text fill="#000000" font-family="sans-serif" font-size="14" lengthAdjust="spacing" textLength="156" x="104" y="408.9951">roll_back_head_block()</text></g><!--MD5=[5af990a2f6b36e2ce950b14a7add7934]
class RollbackInstructionsExecutor--><g id="elem_RollbackInstructionsExecutor"><rect codeLine="14" fill="#F1F1F1" height="64.2969" id="RollbackInstructionsExecutor" rx="2.5" ry="2.5" style="stroke:#181818;stroke-width:0.5;" width="232" x="454" y="188"/><ellipse cx="469" cy="204" fill="#ADD1B2" rx="11" ry="11" style="stroke:#181818;stroke-width:1.0;"/><path d="M471.9688,209.6406 Q471.3906,209.9375 470.75,210.0781 Q470.1094,210.2344 469.4063,210.2344 Q466.9063,210.2344 465.5781,208.5938 Q464.2656,206.9375 464.2656,203.8125 Q464.2656,200.6875 465.5781,199.0313 Q466.9063,197.375 469.4063,197.375 Q470.1094,197.375 470.75,197.5313 Q471.4063,197.6875 471.9688,197.9844 L471.9688,200.7031 Q471.3438,200.125 470.75,199.8594 Q470.1563,199.5781 469.5313,199.5781 Q468.1875,199.5781 467.5,200.6563 Q466.8125,201.7188 466.8125,203.8125 Q466.8125,205.9063 467.5,206.9844 Q468.1875,208.0469 469.5313,208.0469 Q470.1563,208.0469 470.75,207.7813 Q471.3438,207.5 471.9688,206.9219 L471.9688,209.6406 Z " fill="#000000"/><text fill="#000000" font-family="sans-serif" font-size="14" lengthAdjust="spacing" textLength="200" x="483" y="208.8467">RollbackInstructionsExecutor</text><line style="stroke:#181818;stroke-width:0.5;" x1="455" x2="685" y1="220" y2="220"/><line style="stroke:#181818;stroke-width:0.5;" x1="455" x2="685" y1="228" y2="228"/><text fill="#000000" font-family="sans-serif" font-size="14" lengthAdjust="spacing" textLength="66" x="460" y="244.9951">execute()</text></g><!--MD5=[c2c49fb88d93ed19488b675712d5736a]
class Ledger--><g id="elem_Ledger"><rect codeLine="17" fill="#F1F1F1" height="48" id="Ledger" rx="2.5" ry="2.5" style="stroke:#181818;stroke-width:0.5;" width="80" x="454" y="360"/><ellipse cx="469" cy="376" fill="#ADD1B2" rx="11" ry="11" style="stroke:#181818;stroke-width:1.0;"/><path d="M471.9688,381.6406 Q471.3906,381.9375 470.75,382.0781 Q470.1094,382.2344 469.4063,382.2344 Q466.9063,382.2344 465.5781,380.5938 Q464.2656,378.9375 464.2656,375.8125 Q464.2656,372.6875 465.5781,371.0313 Q466.9063,369.375 469.4063,369.375 Q470.1094,369.375 470.75,369.5313 Q471.4063,369.6875 471.9688,369.9844 L471.9688,372.7031 Q471.3438,372.125 470.75,371.8594 Q470.1563,371.5781 469.5313,371.5781 Q468.1875,371.5781 467.5,372.6563 Q466.8125,373.7188 466.8125,375.8125 Q466.8125,377.9063 467.5,378.9844 Q468.1875,380.0469 469.5313,380.0469 Q470.1563,380.0469 470.75,379.7813 Q471.3438,379.5 471.9688,378.9219 L471.9688,381.6406 Z " fill="#000000"/><text fill="#000000" font-family="sans-serif" font-size="14" lengthAdjust="spacing" textLength="48" x="483" y="380.8467">Ledger</text><line style="stroke:#181818;stroke-width:0.5;" x1="455" x2="533" y1="392" y2="392"/><line style="stroke:#181818;stroke-width:0.5;" x1="455" x2="533" y1="400" y2="400"/></g><!--MD5=[7786390ae6f3a68bf7ed9d3450c5d61b]
class BlockRollbackPerformer--><g id="elem_BlockRollbackPerformer"><rect codeLine="21" fill="#F1F1F1" height="64.2969" id="BlockRollbackPerformer" rx="2.5" ry="2.5" style="stroke:#181818;stroke-width:0.5;" width="196" x="156" y="42"/><ellipse cx="171" cy="58" fill="#ADD1B2" rx="11" ry="11" style="stroke:#181818;stroke-width:1.0;"/><path d="M173.9688,63.6406 Q173.3906,63.9375 172.75,64.0781 Q172.1094,64.2344 171.4063,64.2344 Q168.9063,64.2344 167.5781,62.5938 Q166.2656,60.9375 166.2656,57.8125 Q166.2656,54.6875 167.5781,53.0313 Q168.9063,51.375 171.4063,51.375 Q172.1094,51.375 172.75,51.5313 Q173.4063,51.6875 173.9688,51.9844 L173.9688,54.7031 Q173.3438,54.125 172.75,53.8594 Q172.1563,53.5781 171.5313,53.5781 Q170.1875,53.5781 169.5,54.6563 Q168.8125,55.7188 168.8125,57.8125 Q168.8125,59.9063 169.5,60.9844 Q170.1875,62.0469 171.5313,62.0469 Q172.1563,62.0469 172.75,61.7813 Q173.3438,61.5 173.9688,60.9219 L173.9688,63.6406 Z " fill="#000000"/><text fill="#000000" font-family="sans-serif" font-size="14" lengthAdjust="spacing" textLength="164" x="185" y="62.8467">BlockRollbackPerformer</text><line style="stroke:#181818;stroke-width:0.5;" x1="157" x2="351" y1="74" y2="74"/><line style="stroke:#181818;stroke-width:0.5;" x1="157" x2="351" y1="82" y2="82"/><text fill="#000000" font-family="sans-serif" font-size="14" lengthAdjust="spacing" textLength="104" x="162" y="98.9951">roll_back(hash)</text></g><!--MD5=[b13ba8b47f2fdb52b076d278e24dc418]
class RollbackPlannerFactory--><g id="elem_RollbackPlannerFactory"><rect codeLine="24" fill="#F1F1F1" height="64.2969" id="RollbackPlannerFactory" rx="2.5" ry="2.5" style="stroke:#181818;stroke-width:0.5;" width="192" x="156" y="188"/><ellipse cx="171" cy="204" fill="#ADD1B2" rx="11" ry="11" style="stroke:#181818;stroke-width:1.0;"/><path d="M173.9688,209.6406 Q173.3906,209.9375 172.75,210.0781 Q172.1094,210.2344 171.4063,210.2344 Q168.9063,210.2344 167.5781,208.5938 Q166.2656,206.9375 166.2656,203.8125 Q166.2656,200.6875 167.5781,199.0313 Q168.9063,197.375 171.4063,197.375 Q172.1094,197.375 172.75,197.5313 Q173.4063,197.6875 173.9688,197.9844 L173.9688,200.7031 Q173.3438,200.125 172.75,199.8594 Q172.1563,199.5781 171.5313,199.5781 Q170.1875,199.5781 169.5,200.6563 Q168.8125,201.7188 168.8125,203.8125 Q168.8125,205.9063 169.5,206.9844 Q170.1875,208.0469 171.5313,208.0469 Q172.1563,208.0469 172.75,207.7813 Q173.3438,207.5 173.9688,206.9219 L173.9688,209.6406 Z " fill="#000000"/><text fill="#000000" font-family="sans-serif" font-size="14" lengthAdjust="spacing" textLength="160" x="185" y="208.8467">RollbackPlannerFactory</text><line style="stroke:#181818;stroke-width:0.5;" x1="157" x2="347" y1="220" y2="220"/><line style="stroke:#181818;stroke-width:0.5;" x1="157" x2="347" y1="228" y2="228"/><text fill="#000000" font-family="sans-serif" font-size="14" lengthAdjust="spacing" textLength="113" x="162" y="244.9951">create_planner()</text></g><!--MD5=[29ce685274c0fa41316a47c520908286]
link RollbackInstructionsExecutor to Ledger--><g id="link_RollbackInstructionsExecutor_Ledger"><path codeLine="30" d="M555.35,252.24 C541.4,281.96 520.61,326.28 507.17,354.92 " fill="none" id="RollbackInstructionsExecutor-to-Ledger" style="stroke:#181818;stroke-width:1.0;"/><polygon fill="#181818" points="504.92,359.72,512.3685,353.2764,507.0469,355.1949,505.1284,349.8733,504.92,359.72" style="stroke:#181818;stroke-width:1.0;"/></g><!--MD5=[bd8e4332c34830c31589e7ed6e5ea4a2]
link RollbackInstructionsExecutor to RollbackInstructions--><g id="link_RollbackInstructionsExecutor_RollbackInstructions"><path codeLine="31" d="M573.93,252.1 C577.91,294.89 580.05,373.28 552,432 C501.57,537.58 374.69,601.4 292.09,633.14 " fill="none" id="RollbackInstructionsExecutor-to-RollbackInstructions" style="stroke:#181818;stroke-width:1.0;"/><polygon fill="#181818" points="287.2,635,297.0335,635.549,291.8752,633.2272,294.197,628.0688,287.2,635" style="stroke:#181818;stroke-width:1.0;"/></g><!--MD5=[57620e90363a6581c77d882abe3fe208]
link RollbackPlannerFactory to Ledger--><g id="link_RollbackPlannerFactory_Ledger"><path codeLine="32" d="M298.13,252.06 C322.49,267.78 353.24,286.53 382,301 C390.55,305.3 393.73,304.17 402,309 C424.87,322.37 448.09,341.09 465.49,356.37 " fill="none" id="RollbackPlannerFactory-to-Ledger" style="stroke:#181818;stroke-width:1.0;"/><polygon fill="#181818" points="469.33,359.77,465.2246,350.8176,465.5796,356.4633,459.9339,356.8183,469.33,359.77" style="stroke:#181818;stroke-width:1.0;"/></g><!--MD5=[759867bf11f81ba840ec68944b949a21]
link RollbackPlannerFactory to BlockEnum--><g id="link_RollbackPlannerFactory_BlockEnum"><path codeLine="33" d="M268.08,252.15 C272.76,262.13 277.53,273.35 281,284 C306.34,361.76 321.24,457.58 327.5,504.26 " fill="none" id="RollbackPlannerFactory-to-BlockEnum" style="stroke:#181818;stroke-width:1.0;"/><polygon fill="#181818" points="328.19,509.43,330.9726,499.9824,327.5329,504.4734,323.042,501.0337,328.19,509.43" style="stroke:#181818;stroke-width:1.0;"/></g><!--MD5=[cc306a0e741714429b76d1f6a3a0500a]
link RollbackPlannerFactory to RollbackPlanner--><g id="link_RollbackPlannerFactory_RollbackPlanner"><path codeLine="34" d="M238.5,252.24 C226.79,279.35 209.82,318.62 197.54,347.04 " fill="none" id="RollbackPlannerFactory-to-RollbackPlanner" style="stroke:#181818;stroke-width:1.0;stroke-dasharray:7.0,7.0;"/><polygon fill="#181818" points="195.46,351.86,202.6819,345.1634,197.4296,347.2643,195.3287,342.012,195.46,351.86" style="stroke:#181818;stroke-width:1.0;"/><text fill="#000000" font-family="sans-serif" font-size="13" lengthAdjust="spacing" textLength="48" x="224" y="297.0669">creates</text></g><!--MD5=[abbd8813c2423b98fb37d261de78a73a]
link RollbackStep to RollbackInstructions--><g id="link_RollbackStep_RollbackInstructions"><path codeLine="35" d="M159.04,574.26 C171.49,592.56 185.96,613.83 197.2,630.36 " fill="none" id="RollbackStep-to-RollbackInstructions" style="stroke:#181818;stroke-width:1.0;"/><polygon fill="#181818" points="200.28,634.88,198.5389,625.1863,197.4735,630.7419,191.9179,629.6766,200.28,634.88" style="stroke:#181818;stroke-width:1.0;"/></g><!--MD5=[7afa97c9199d7a319ecdb74d0c81cb4a]
link RollbackPlanner to RollbackStep--><g id="link_RollbackPlanner_RollbackStep"><path codeLine="36" d="M171.4,416.28 C164.33,437.12 154.94,464.83 147.1,487.96 " fill="none" id="RollbackPlanner-to-RollbackStep" style="stroke:#181818;stroke-width:1.0;stroke-dasharray:7.0,7.0;"/><polygon fill="#181818" points="145.45,492.83,152.1236,485.5869,147.0526,488.0938,144.5457,483.0227,145.45,492.83" style="stroke:#181818;stroke-width:1.0;"/><text fill="#000000" font-family="sans-serif" font-size="13" lengthAdjust="spacing" textLength="48" x="160" y="459.0669">creates</text></g><!--MD5=[fc7644b61568a1341afeb3b52b32b8cb]
link RollbackPlanner to BlockEnum--><g id="link_RollbackPlanner_BlockEnum"><path codeLine="37" d="M213.6,416.28 C240.47,442.88 278.63,480.66 304.07,505.84 " fill="none" id="RollbackPlanner-to-BlockEnum" style="stroke:#181818;stroke-width:1.0;"/><polygon fill="#181818" points="307.73,509.46,304.1574,500.2819,304.1802,505.9388,298.5234,505.9616,307.73,509.46" style="stroke:#181818;stroke-width:1.0;"/></g><!--MD5=[f5fa7c6d886a58d036e761a4e04f219d]
link BlockRollbackPerformer to Ledger--><g id="link_BlockRollbackPerformer_Ledger"><path codeLine="38" d="M316.41,106.13 C333.86,116.82 351.89,129.94 366,145 C368.02,147.15 445.97,293.02 479.22,355.3 " fill="none" id="BlockRollbackPerformer-to-Ledger" style="stroke:#181818;stroke-width:1.0;"/><polygon fill="#181818" points="481.73,359.99,481.0192,350.1668,479.3748,355.5794,473.9622,353.9351,481.73,359.99" style="stroke:#181818;stroke-width:1.0;"/></g><!--MD5=[618b1ce744c87f40ca436f28a6fe2e73]
link BlockRollbackPerformer to RollbackPlannerFactory--><g id="link_BlockRollbackPerformer_RollbackPlannerFactory"><path codeLine="39" d="M253.57,106.25 C253.25,128.7 252.83,159.04 252.51,182.59 " fill="none" id="BlockRollbackPerformer-to-RollbackPlannerFactory" style="stroke:#181818;stroke-width:1.0;stroke-dasharray:7.0,7.0;"/><polygon fill="#181818" points="252.43,187.82,256.5582,178.8781,252.5014,182.8205,248.559,178.7638,252.43,187.82" style="stroke:#181818;stroke-width:1.0;"/></g><!--MD5=[637594c5490f2afeb07bca8533a3e5a9]
link BlockRollbackPerformer to RollbackInstructionsExecutor--><g id="link_BlockRollbackPerformer_RollbackInstructionsExecutor"><path codeLine="40" d="M352.26,106.07 C377.02,114.86 403.29,125.06 427,136 C457.8,150.22 490.63,168.99 517.06,185.09 " fill="none" id="BlockRollbackPerformer-to-RollbackInstructionsExecutor" style="stroke:#181818;stroke-width:1.0;stroke-dasharray:7.0,7.0;"/><polygon fill="#181818" points="521.58,187.85,515.9917,179.74,517.3154,185.2399,511.8155,186.5635,521.58,187.85" style="stroke:#181818;stroke-width:1.0;"/></g><!--MD5=[90a7eceee6423af8dc8e5d446e591b64]
@startuml Block Rollback
package Logik <<Rectangle>>{
    enum RollbackStep{
        RollBackBlock
        RequestDependencyRollback
    }
    struct RollbackInstructions
    enum BlockEnum
    class RollbackPlanner{
        roll_back_head_block()
    }
}

package Infrastructure <<Rectangle>>{
    class RollbackInstructionsExecutor{
        execute()
    }
    class Ledger
}

package Application <<Rectangle>>{
    class BlockRollbackPerformer{
        roll_back(hash)
    }
    class RollbackPlannerFactory{
        create_planner()
    }

}

RollbackInstructionsExecutor - -> Ledger
RollbackInstructionsExecutor - -> RollbackInstructions
RollbackPlannerFactory - -> Ledger
RollbackPlannerFactory - -> BlockEnum
RollbackPlannerFactory ..> RollbackPlanner: creates
RollbackStep - -> RollbackInstructions
RollbackPlanner ..> RollbackStep: creates
RollbackPlanner - -> BlockEnum
BlockRollbackPerformer - -> Ledger
BlockRollbackPerformer ..> RollbackPlannerFactory
BlockRollbackPerformer ..> RollbackInstructionsExecutor

@enduml

PlantUML version 1.2022.13(Sat Nov 19 13:22:17 UTC 2022)
(GPL source distribution)
Java Runtime: OpenJDK Runtime Environment
JVM: OpenJDK 64-Bit Server VM
Default Encoding: UTF-8
Language: en
Country: null
--></g></svg>