<?xml version="1.0" encoding="UTF-8" standalone="no"?>
<svg
   width="196"
   height="144"
   version="1.1"
   viewBox="19 19 144.27756 105.99984"
   xml:space="preserve"
   id="svg73"
   sodipodi:docname="cover-image.svg"
   inkscape:version="1.2.1 (9c6d41e410, 2022-07-14, custom)"
   inkscape:export-filename="/home/gustav/Pictures/rsnano-logo.png"
   inkscape:export-xdpi="300"
   inkscape:export-ydpi="300"
   xmlns:inkscape="http://www.inkscape.org/namespaces/inkscape"
   xmlns:sodipodi="http://sodipodi.sourceforge.net/DTD/sodipodi-0.dtd"
   xmlns="http://www.w3.org/2000/svg"
   xmlns:svg="http://www.w3.org/2000/svg"
   xmlns:rdf="http://www.w3.org/1999/02/22-rdf-syntax-ns#"
   xmlns:cc="http://creativecommons.org/ns#"
   xmlns:dc="http://purl.org/dc/elements/1.1/"><defs
     id="defs77" /><sodipodi:namedview
     id="namedview75"
     pagecolor="#ffffff"
     bordercolor="#666666"
     borderopacity="1.0"
     inkscape:pageshadow="2"
     inkscape:pageopacity="0.0"
     inkscape:pagecheckerboard="0"
     showgrid="false"
     inkscape:zoom="3.0347222"
     inkscape:cx="-36.08238"
     inkscape:cy="79.249428"
     inkscape:window-width="1872"
     inkscape:window-height="1132"
     inkscape:window-x="0"
     inkscape:window-y="0"
     inkscape:window-maximized="1"
     inkscape:current-layer="layer3"
     units="px"
     width="3.81cm"
     scale-x="0.73611"
     inkscape:showpageshadow="2"
     inkscape:deskcolor="#d1d1d1" /><title
     id="title67">Rust programming language logo</title><metadata
     id="metadata69"><rdf:RDF><cc:Work
         rdf:about=""><dc:format>image/svg+xml</dc:format><dc:type
           rdf:resource="http://purl.org/dc/dcmitype/StillImage" /><dc:title>Rust programming language logo</dc:title></cc:Work></rdf:RDF></metadata><g
     inkscape:groupmode="layer"
     id="layer3"
     inkscape:label="Layer 1 copy 1"><rect
       style="fill:#3f408a;fill-opacity:1;stroke-width:0.858016"
       id="rect245"
       width="144.33798"
       height="105.82834"
       x="18.86261"
       y="19.134546" /><path
       id="path2"
       style="fill:#209ce9;fill-opacity:0.541466;stroke-width:0.0764834"
       d="m 68.082748,35.628674 a 1.0144232,1.0144232 0 0 0 -0.854003,1.559924 l 1.426215,2.232774 a 1.0144232,1.0144232 0 0 0 0,0.0014 L 83.748113,63.032999 H 71.963147 a 1.0144232,1.0144232 0 0 0 -1.015028,1.01359 v 6.380588 a 1.0144232,1.0144232 0 0 0 1.015028,1.013591 h 11.917236 l -1.304009,2.022868 c -3.537864,0 -7.075362,-2e-6 -10.613227,0 a 1.0144232,1.0144232 0 0 0 -1.015028,1.015028 c 4.15e-4,2.125169 -0.0019,4.250826 -0.0014,6.377713 a 1.0144232,1.0144232 0 0 0 1.015028,1.01359 h 5.193033 c -3.783237,5.867229 -7.567735,11.734494 -11.350776,17.601972 h 6.68826 v 2.214081 h 1.915039 a 1.0144232,1.0144232 0 0 0 0.849691,-0.46007 C 79.462122,94.774127 83.667625,88.321727 87.87296,81.869967 h 8.06128 c 4.14102,6.449707 8.28097,12.900876 12.42332,19.350233 a 1.0144232,1.0144232 0 0 0 0.85401,0.46582 h 0.98196 v -1.4751 h 6.9298 v 1.4751 h 0.27747 a 1.0144232,1.0144232 0 0 0 0.85688,-1.55849 c -3.86866,-6.085547 -7.73685,-12.171796 -11.6053,-18.257563 h 5.20311 a 1.0144232,1.0144232 0 0 0 1.01359,-1.01359 v -6.377713 a 1.0144232,1.0144232 0 0 0 -1.01359,-1.015028 c -3.51566,0 -7.03143,-2e-6 -10.5471,0 l -1.28532,-2.022868 h 11.83098 a 1.0144232,1.0144232 0 0 0 1.0136,-1.013591 v -6.380588 a 1.0144232,1.0144232 0 0 0 -1.0136,-1.01359 h -11.70877 c 5.58215,-8.612818 11.16385,-17.226367 16.74653,-25.838651 a 1.0144232,1.0144232 0 0 0 -0.85256,-1.565674 h -8.00665 a 1.0144232,1.0144232 0 0 0 -0.85114,0.46007 C 102.1374,43.823204 97.092723,51.557835 92.048054,59.292059 87.109297,51.560627 82.169376,43.828915 77.230942,36.09737 A 1.0144232,1.0144232 0 0 0 76.376939,35.628674 Z M 91.838932,19.983438 c -0.528,0 -1.009568,0.270983 -1.279569,0.715983 l -2.72016,4.399414 c -0.428,0.035 -0.857005,0.07808 -1.281005,0.125081 l -3.519532,-3.779758 c -0.357,-0.382 -0.887336,-0.55388 -1.400336,-0.45288 -0.515,0.103 -0.938982,0.464081 -1.119981,0.956081 l -1.800022,4.829292 c -0.418,0.119999 -0.831313,0.246682 -1.239313,0.376681 l -4.18088,-3.009141 c -0.425001,-0.307 -0.978283,-0.371651 -1.459283,-0.169651 -0.483,0.2 -0.830388,0.636736 -0.914389,1.148736 L 70.0949,30.214232 c -0.384,0.199 -0.764109,0.403467 -1.14011,0.612468 l -4.689833,-2.139323 c -0.477,-0.218 -1.030784,-0.174107 -1.470784,0.117893 -0.436,0.289999 -0.689977,0.788197 -0.669976,1.311197 l 0.179715,5.170031 c -0.334001,0.266999 -0.665025,0.539185 -0.992025,0.815185 l -5.030572,-1.190429 c -0.511,-0.119001 -1.049027,0.034 -1.419027,0.403998 -0.372,0.371 -0.523998,0.905027 -0.403998,1.419027 l 1.180365,5.030572 c -0.275,0.326 -0.546747,0.656587 -0.813747,0.990587 l -5.170031,-0.181153 c -0.521,-0.015 -1.01976,0.235414 -1.30976,0.671415 -0.292,0.433999 -0.336331,0.990784 -0.11933,1.470783 l 2.139322,4.699898 c -0.208,0.377 -0.413467,0.757109 -0.612467,1.140109 l -5.089518,0.826687 c -0.517,0.084 -0.953174,0.430388 -1.150174,0.914388 -0.2,0.485 -0.135349,1.040721 0.169651,1.460721 l 3.010579,4.179443 c -0.131,0.413 -0.258119,0.828814 -0.378119,1.250814 l -4.83073,1.798584 c -0.49,0.183 -0.851206,0.60842 -0.953206,1.12142 -0.102,0.514 0.06988,1.038898 0.452881,1.398898 l 3.779758,3.520969 c -0.047,0.425 -0.08908,0.852568 -0.125082,1.279568 l -4.38935,2.720161 c -0.445,0.275 -0.715983,0.760632 -0.715983,1.289632 0,0.529 0.270983,1.009568 0.715983,1.279568 l 4.38935,2.720161 c 0.036,0.428 0.07808,0.856006 0.125082,1.281005 l -3.779758,3.519532 c -0.383,0.356999 -0.554881,0.887336 -0.452881,1.400336 0.102,0.515 0.463206,0.937982 0.953206,1.119981 l 4.83073,1.800022 c 0.12,0.418 0.247119,0.832376 0.378119,1.249376 L 43.682601,90.8672 c -0.306,0.426 -0.370651,0.97972 -0.169651,1.46072 0.201,0.485 0.638238,0.831385 1.160238,0.914389 l 5.089518,0.828125 c 0.199,0.386002 0.402468,0.766107 0.612468,1.140111 l -2.139323,4.689834 c -0.218,0.476991 -0.17267,1.029331 0.11933,1.469341 0.292,0.43701 0.78876,0.69242 1.30976,0.67141 l 5.159967,-0.18115 c 0.269,0.336 0.539185,0.66503 0.815185,0.99203 l -1.178928,5.02914 c -0.12,0.51 0.03056,1.04039 0.402561,1.41039 0.369,0.373 0.906464,0.52257 1.420464,0.40257 l 5.029135,-1.18037 c 0.326999,0.278 0.658024,0.54774 0.992024,0.81375 l -0.179715,5.17003 c -0.02,0.523 0.235414,1.01975 0.671415,1.30976 0.434,0.291 0.989346,0.33589 1.469346,0.11789 l 4.689833,-2.14076 c 0.378,0.21 0.75811,0.4149 1.140109,0.6139 l 0.831001,5.08953 c 0.084,0.51799 0.428951,0.95623 0.91295,1.16023 0.483,0.201 1.040721,0.13535 1.460721,-0.16965 l 4.179443,-3.00914 c 0.413,0.131 0.828814,0.25812 1.250814,0.37812 l 1.800022,4.83073 c 0.182999,0.49 0.606981,0.8532 1.119981,0.9532 0.514,0.10401 1.038899,-0.0689 1.398899,-0.45288 l 3.520969,-3.77976 c 0.425,0.049 0.852568,0.09 1.279568,0.12796 l 2.720161,4.39079 c 0.274,0.443 0.760568,0.71598 1.279568,0.71598 0.518999,0 1.009632,-0.27198 1.289632,-0.71598 l 2.72016,-4.39079 c 0.428,-0.038 0.856006,-0.0789 1.281007,-0.12796 l 3.519537,3.77976 c 0.357,0.384 0.88733,0.55689 1.40033,0.45288 0.515,-0.101 0.93898,-0.4632 1.11999,-0.9532 l 1.80002,-4.83073 c 0.418,-0.12 0.83237,-0.24712 1.24937,-0.37812 l 4.18089,3.00914 c 0.425,0.305 0.97828,0.37065 1.45928,0.16965 0.484,-0.199 0.83039,-0.63824 0.91439,-1.16023 l 0.82956,-5.08953 c 0.38401,-0.199 0.76411,-0.4069 1.14011,-0.6139 l 4.68984,2.14076 c 0.477,0.218 1.03079,0.17311 1.47078,-0.11789 0.43601,-0.292 0.68898,-0.78676 0.66998,-1.30976 l -0.17971,-5.17003 c 0.334,-0.26701 0.66458,-0.53575 0.99058,-0.81375 l 5.03058,1.18037 c 0.511,0.12 1.05046,-0.0296 1.42046,-0.40257 0.372,-0.371 0.52256,-0.9044 0.40256,-1.41039 l -1.18037,-5.02914 c 0.27601,-0.327 0.54775,-0.65603 0.81375,-0.99203 l 5.17003,0.18115 c 0.521,0.021 1.0212,-0.2344 1.3112,-0.67141 0.292,-0.43601 0.3369,-0.99035 0.1179,-1.469341 l -2.14077,-4.689834 c 0.20901,-0.379002 0.41447,-0.759115 0.61247,-1.140111 l 5.08952,-0.828125 c 0.518,-0.083 0.95417,-0.429389 1.15018,-0.914389 0.19999,-0.483 0.13734,-1.04072 -0.16966,-1.46072 l -3.01058,-4.179444 c 0.13,-0.412999 0.25712,-0.827376 0.37813,-1.249376 l 4.83072,-1.800022 c 0.49101,-0.183999 0.85177,-0.606981 0.95177,-1.119981 0.104,-0.514 -0.0674,-1.040336 -0.45145,-1.400336 l -3.77975,-3.519532 c 0.046,-0.424999 0.0881,-0.854006 0.12508,-1.281005 l 4.38935,-2.720161 c 0.445,-0.274 0.71599,-0.760568 0.71599,-1.279568 0,-0.519 -0.26955,-1.009633 -0.71455,-1.289632 h -0.0317 l -4.38935,-2.720161 c -0.037,-0.428 -0.0791,-0.854568 -0.12508,-1.279568 l 3.77976,-3.520969 c 0.384,-0.358 0.55689,-0.886898 0.45288,-1.398898 -0.101,-0.515 -0.4622,-0.94042 -0.9532,-1.12142 l -4.83073,-1.798584 c -0.121,-0.418 -0.24812,-0.833814 -0.37812,-1.250814 l 3.01058,-4.179443 c 0.307,-0.425 0.36965,-0.97872 0.16965,-1.460721 -0.2,-0.482999 -0.63717,-0.829387 -1.15018,-0.914388 l -5.08951,-0.826687 c -0.19798,-0.386 -0.40445,-0.76611 -0.61245,-1.140109 l 2.14076,-4.699898 c 0.219,-0.477999 0.17411,-1.030784 -0.11789,-1.470783 -0.291,-0.436001 -0.78376,-0.691415 -1.30976,-0.671415 l -5.17003,0.181153 c -0.267,-0.334 -0.53962,-0.665587 -0.81662,-0.990587 l 1.19042,-5.030572 c 0.12,-0.511 -0.032,-1.049026 -0.404,-1.419027 -0.36899,-0.37 -0.90402,-0.523998 -1.41902,-0.403998 l -5.03057,1.190429 c -0.326,-0.276 -0.65703,-0.548186 -0.99203,-0.815185 l 0.18115,-5.170031 c 0.02,-0.523 -0.2354,-1.021198 -0.67141,-1.311197 -0.437,-0.292 -0.98934,-0.334893 -1.46935,-0.117893 l -4.68983,2.139323 c -0.379,-0.208 -0.75911,-0.413468 -1.14011,-0.612468 l -0.831,-5.090956 c -0.084,-0.516 -0.42895,-0.952736 -0.91295,-1.148736 -0.483,-0.201 -1.04072,-0.136349 -1.46072,0.169651 l -4.17946,3.009141 c -0.412,-0.130999 -0.82674,-0.256682 -1.24074,-0.376681 l -1.79998,-4.829292 c -0.183,-0.492 -0.60699,-0.854081 -1.11999,-0.956081 -0.514,-0.101 -1.03889,0.07088 -1.39889,0.45288 l -3.520977,3.779758 c -0.425,-0.047 -0.852568,-0.09008 -1.279569,-0.125081 l -2.72016,-4.399414 c -0.275,-0.445 -0.761632,-0.715983 -1.289632,-0.715983 z m -0.234348,9.283339 c 0.795,0.01887 1.583828,0.341332 2.173828,0.961833 1.18,1.239999 1.139484,3.210851 -0.103516,4.400851 -1.239999,1.19 -3.210788,1.139922 -4.390787,-0.102077 -1.179745,-1.239732 -1.138695,-3.209335 0.103516,-4.399415 0.62,-0.595 1.421959,-0.880067 2.216959,-0.861192 z m 7.177087,5.076579 c 11.200009,2.09 20.699529,9.068947 26.199529,18.698947 l -3.66905,8.28125 c -0.63301,1.43 0.0121,3.109502 1.43915,3.739502 l 7.06063,3.139974 c 0.122,1.25 0.18546,2.519886 0.18546,3.799886 l -0.0101,0.02444 c 0,0.956 -0.035,1.900929 -0.10496,2.840929 h -0.1222 a 38.229954,38.229954 0 0 1 -7.44594,19.820366 c 0.12961,-0.0081 0.25801,-0.01347 0.39825,-0.03879 -1.08,1.469999 -2.26966,2.859313 -3.53966,4.159315 l -6.58044,-1.408961 -0.0546,0.02731 c -1.52999,-0.328004 -3.03994,0.647012 -3.35994,2.181015 l -1.55992,7.279161 c -4.81001,2.18 -10.200521,3.4002 -15.800521,3.4002 -5.76,0 -11.199555,-1.26973 -16.099555,-3.54973 L 74.15786,99.457579 c -0.327999,-1.53 -1.829944,-2.50958 -3.359944,-2.179581 l -6.430908,1.380208 c -1.19,-1.229997 -2.299689,-2.540651 -3.319688,-3.920653 h 0.130839 a 38.229954,38.229954 0 0 1 -6.01397,-12.259428 h -0.196967 c -0.949001,-3.34 -1.459283,-6.859648 -1.459283,-10.499647 0,-1.378243 0.07403,-2.737012 0.215657,-4.075928 l 6.663818,-2.964572 c 1.430001,-0.635001 2.080593,-2.309502 1.440593,-3.739503 l -1.380209,-3.121283 v 0.02013 l -2.07175,-4.702772 a 38.229954,38.229954 0 0 1 5.004694,-6.944174 h -0.159567 c 5.51,-6.14 13.000417,-10.499826 21.400417,-12.099826 l 4.790474,5.020508 c 1.08,1.13 2.869792,1.180014 4.009792,0.09201 z M 54.442475,57.430215 c 1.209844,-0.021 2.370562,0.671466 2.895562,1.847466 0.696,1.570001 -0.01205,3.410433 -1.580051,4.110434 -1.57,0.697 -3.400369,-0.01205 -4.100369,-1.580052 -0.7,-1.568 0.01205,-3.410433 1.580051,-4.110432 0.3925,-0.174 0.801526,-0.260416 1.204807,-0.267416 z M 128.68189,57.5783 c 0.40367,0.0074 0.81374,0.09385 1.20624,0.268853 1.57,0.696 2.28005,2.540433 1.58005,4.110433 -0.695,1.57 -2.53037,2.280051 -4.10037,1.580051 -1.57,-0.696 -2.28005,-2.540433 -1.58005,-4.110433 0.52125,-1.1775 1.68311,-1.870935 2.89413,-1.848904 z m -60.118159,43.64047 c 1.446211,-0.0127 2.748775,0.98937 3.063775,2.45849 0.359001,1.68 -0.708486,3.34068 -2.389485,3.70068 -1.68,0.362 -3.33062,-0.70748 -3.69062,-2.38948 -0.359,-1.68 0.708924,-3.34069 2.390924,-3.70068 0.21,-0.0449 0.418805,-0.0672 0.625406,-0.069 z m 46.147849,0.14951 c 0.20663,0.002 0.41685,0.024 0.62685,0.069 1.68,0.359 2.74948,2.02068 2.38949,3.70069 -0.36001,1.67999 -2.01063,2.74948 -3.69063,2.38948 h -0.0101 c -1.68,-0.362 -2.73942,-2.01925 -2.37942,-3.69925 0.31413,-1.47 1.61738,-2.47333 3.06378,-2.45993 z" /></g><g
     inkscape:groupmode="layer"
     id="g635"
     inkscape:label="Layer 1 copy"
     style="display:inline" /></svg>
