<?xml version="1.0" encoding="UTF-8" standalone="no"?><svg xmlns="http://www.w3.org/2000/svg" xmlns:xlink="http://www.w3.org/1999/xlink" contentStyleType="text/css" height="220px" preserveAspectRatio="none" style="width:700px;height:220px;background:#FFFFFF;" version="1.1" viewBox="0 0 700 220" width="700px" zoomAndPan="magnify"><defs/><g><!--MD5=[0b6184072cbabbedc4656b3815d5889b]
cluster Ledger--><g id="cluster_Ledger"><path d="M132,6 L189,6 A3.75,3.75 0 0 1 191.5,8.5 L198.5,28.2969 L691,28.2969 A2.5,2.5 0 0 1 693.5,30.7969 L693.5,210.5 A2.5,2.5 0 0 1 691,213 L132,213 A2.5,2.5 0 0 1 129.5,210.5 L129.5,8.5 A2.5,2.5 0 0 1 132,6 " fill="none" style="stroke:#000000;stroke-width:1.5;"/><line style="stroke:#000000;stroke-width:1.5;" x1="129.5" x2="198.5" y1="28.2969" y2="28.2969"/><text fill="#000000" font-family="sans-serif" font-size="14" font-weight="bold" lengthAdjust="spacing" textLength="56" x="133.5" y="20.9951">Ledger</text></g><!--MD5=[c2c49fb88d93ed19488b675712d5736a]
class Ledger--><g id="elem_Ledger"><rect codeLine="6" fill="#F1F1F1" height="48" id="Ledger" rx="2.5" ry="2.5" style="stroke:#181818;stroke-width:0.5;" width="80" x="259.5" y="41"/><ellipse cx="274.5" cy="57" fill="#ADD1B2" rx="11" ry="11" style="stroke:#181818;stroke-width:1.0;"/><path d="M277.4688,62.6406 Q276.8906,62.9375 276.25,63.0781 Q275.6094,63.2344 274.9063,63.2344 Q272.4063,63.2344 271.0781,61.5938 Q269.7656,59.9375 269.7656,56.8125 Q269.7656,53.6875 271.0781,52.0313 Q272.4063,50.375 274.9063,50.375 Q275.6094,50.375 276.25,50.5313 Q276.9063,50.6875 277.4688,50.9844 L277.4688,53.7031 Q276.8438,53.125 276.25,52.8594 Q275.6563,52.5781 275.0313,52.5781 Q273.6875,52.5781 273,53.6563 Q272.3125,54.7188 272.3125,56.8125 Q272.3125,58.9063 273,59.9844 Q273.6875,61.0469 275.0313,61.0469 Q275.6563,61.0469 276.25,60.7813 Q276.8438,60.5 277.4688,59.9219 L277.4688,62.6406 Z " fill="#000000"/><text fill="#000000" font-family="sans-serif" font-size="14" lengthAdjust="spacing" textLength="48" x="288.5" y="61.8467">Ledger</text><line style="stroke:#181818;stroke-width:0.5;" x1="260.5" x2="338.5" y1="73" y2="73"/><line style="stroke:#181818;stroke-width:0.5;" x1="260.5" x2="338.5" y1="81" y2="81"/></g><!--MD5=[bc8efb3116530c74d4af7488bdbf51ca]
class RollbackVisitor--><g id="elem_RollbackVisitor"><rect codeLine="7" fill="#F1F1F1" height="48" id="RollbackVisitor" rx="2.5" ry="2.5" style="stroke:#181818;stroke-width:0.5;" width="132" x="145.5" y="149"/><ellipse cx="160.5" cy="165" fill="#ADD1B2" rx="11" ry="11" style="stroke:#181818;stroke-width:1.0;"/><path d="M163.4688,170.6406 Q162.8906,170.9375 162.25,171.0781 Q161.6094,171.2344 160.9063,171.2344 Q158.4063,171.2344 157.0781,169.5938 Q155.7656,167.9375 155.7656,164.8125 Q155.7656,161.6875 157.0781,160.0313 Q158.4063,158.375 160.9063,158.375 Q161.6094,158.375 162.25,158.5313 Q162.9063,158.6875 163.4688,158.9844 L163.4688,161.7031 Q162.8438,161.125 162.25,160.8594 Q161.6563,160.5781 161.0313,160.5781 Q159.6875,160.5781 159,161.6563 Q158.3125,162.7188 158.3125,164.8125 Q158.3125,166.9063 159,167.9844 Q159.6875,169.0469 161.0313,169.0469 Q161.6563,169.0469 162.25,168.7813 Q162.8438,168.5 163.4688,167.9219 L163.4688,170.6406 Z " fill="#000000"/><text fill="#000000" font-family="sans-serif" font-size="14" lengthAdjust="spacing" textLength="100" x="174.5" y="169.8467">RollbackVisitor</text><line style="stroke:#181818;stroke-width:0.5;" x1="146.5" x2="276.5" y1="181" y2="181"/><line style="stroke:#181818;stroke-width:0.5;" x1="146.5" x2="276.5" y1="189" y2="189"/></g><!--MD5=[f2768a92c393183967a2349fd3ea2423]
class LedgerProcessor--><g id="elem_LedgerProcessor"><rect codeLine="8" fill="#F1F1F1" height="48" id="LedgerProcessor" rx="2.5" ry="2.5" style="stroke:#181818;stroke-width:0.5;" width="150" x="312.5" y="149"/><ellipse cx="327.5" cy="165" fill="#ADD1B2" rx="11" ry="11" style="stroke:#181818;stroke-width:1.0;"/><path d="M330.4688,170.6406 Q329.8906,170.9375 329.25,171.0781 Q328.6094,171.2344 327.9063,171.2344 Q325.4063,171.2344 324.0781,169.5938 Q322.7656,167.9375 322.7656,164.8125 Q322.7656,161.6875 324.0781,160.0313 Q325.4063,158.375 327.9063,158.375 Q328.6094,158.375 329.25,158.5313 Q329.9063,158.6875 330.4688,158.9844 L330.4688,161.7031 Q329.8438,161.125 329.25,160.8594 Q328.6563,160.5781 328.0313,160.5781 Q326.6875,160.5781 326,161.6563 Q325.3125,162.7188 325.3125,164.8125 Q325.3125,166.9063 326,167.9844 Q326.6875,169.0469 328.0313,169.0469 Q328.6563,169.0469 329.25,168.7813 Q329.8438,168.5 330.4688,167.9219 L330.4688,170.6406 Z " fill="#000000"/><text fill="#000000" font-family="sans-serif" font-size="14" lengthAdjust="spacing" textLength="118" x="341.5" y="169.8467">LedgerProcessor</text><line style="stroke:#181818;stroke-width:0.5;" x1="313.5" x2="461.5" y1="181" y2="181"/><line style="stroke:#181818;stroke-width:0.5;" x1="313.5" x2="461.5" y1="189" y2="189"/></g><!--MD5=[6ae49d5faabcb5bcc80172e702992276]
class RepresentativeVisitor--><g id="elem_RepresentativeVisitor"><rect codeLine="9" fill="#F1F1F1" height="48" id="RepresentativeVisitor" rx="2.5" ry="2.5" style="stroke:#181818;stroke-width:0.5;" width="179" x="498" y="149"/><ellipse cx="513" cy="165" fill="#ADD1B2" rx="11" ry="11" style="stroke:#181818;stroke-width:1.0;"/><path d="M515.9688,170.6406 Q515.3906,170.9375 514.75,171.0781 Q514.1094,171.2344 513.4063,171.2344 Q510.9063,171.2344 509.5781,169.5938 Q508.2656,167.9375 508.2656,164.8125 Q508.2656,161.6875 509.5781,160.0313 Q510.9063,158.375 513.4063,158.375 Q514.1094,158.375 514.75,158.5313 Q515.4063,158.6875 515.9688,158.9844 L515.9688,161.7031 Q515.3438,161.125 514.75,160.8594 Q514.1563,160.5781 513.5313,160.5781 Q512.1875,160.5781 511.5,161.6563 Q510.8125,162.7188 510.8125,164.8125 Q510.8125,166.9063 511.5,167.9844 Q512.1875,169.0469 513.5313,169.0469 Q514.1563,169.0469 514.75,168.7813 Q515.3438,168.5 515.9688,167.9219 L515.9688,170.6406 Z " fill="#000000"/><text fill="#000000" font-family="sans-serif" font-size="14" lengthAdjust="spacing" textLength="147" x="527" y="169.8467">RepresentativeVisitor</text><line style="stroke:#181818;stroke-width:0.5;" x1="499" x2="676" y1="181" y2="181"/><line style="stroke:#181818;stroke-width:0.5;" x1="499" x2="676" y1="189" y2="189"/></g><!--MD5=[b4d3d50c0abf08df45181fececb9f04d]
class Store--><g id="elem_Store"><rect codeLine="1" fill="#F1F1F1" height="48" id="Store" rx="2.5" ry="2.5" style="stroke:#181818;stroke-width:0.5;" width="69" x="33" y="149"/><ellipse cx="48" cy="165" fill="#B4A7E5" rx="11" ry="11" style="stroke:#181818;stroke-width:1.0;"/><path d="M43.9219,160.7656 L43.9219,158.6094 L51.3125,158.6094 L51.3125,160.7656 L48.8438,160.7656 L48.8438,168.8438 L51.3125,168.8438 L51.3125,171 L43.9219,171 L43.9219,168.8438 L46.3906,168.8438 L46.3906,160.7656 L43.9219,160.7656 Z " fill="#000000"/><text fill="#000000" font-family="sans-serif" font-size="14" font-style="italic" lengthAdjust="spacing" textLength="37" x="62" y="169.8467">Store</text><line style="stroke:#181818;stroke-width:0.5;" x1="34" x2="101" y1="181" y2="181"/><line style="stroke:#181818;stroke-width:0.5;" x1="34" x2="101" y1="189" y2="189"/></g><!--MD5=[7c88df9ef30eebe27fe3802f2eaa52ba]
class LmdbStore--><g id="elem_LmdbStore"><rect codeLine="3" fill="#F1F1F1" height="48" id="LmdbStore" rx="2.5" ry="2.5" style="stroke:#181818;stroke-width:0.5;" width="107" x="7" y="41"/><ellipse cx="22" cy="57" fill="#ADD1B2" rx="11" ry="11" style="stroke:#181818;stroke-width:1.0;"/><path d="M24.9688,62.6406 Q24.3906,62.9375 23.75,63.0781 Q23.1094,63.2344 22.4063,63.2344 Q19.9063,63.2344 18.5781,61.5938 Q17.2656,59.9375 17.2656,56.8125 Q17.2656,53.6875 18.5781,52.0313 Q19.9063,50.375 22.4063,50.375 Q23.1094,50.375 23.75,50.5313 Q24.4063,50.6875 24.9688,50.9844 L24.9688,53.7031 Q24.3438,53.125 23.75,52.8594 Q23.1563,52.5781 22.5313,52.5781 Q21.1875,52.5781 20.5,53.6563 Q19.8125,54.7188 19.8125,56.8125 Q19.8125,58.9063 20.5,59.9844 Q21.1875,61.0469 22.5313,61.0469 Q23.1563,61.0469 23.75,60.7813 Q24.3438,60.5 24.9688,59.9219 L24.9688,62.6406 Z " fill="#000000"/><text fill="#000000" font-family="sans-serif" font-size="14" lengthAdjust="spacing" textLength="75" x="36" y="61.8467">LmdbStore</text><line style="stroke:#181818;stroke-width:0.5;" x1="8" x2="113" y1="73" y2="73"/><line style="stroke:#181818;stroke-width:0.5;" x1="8" x2="113" y1="81" y2="81"/></g><!--MD5=[cc84dcd9ba1419364986d42b9e612d97]
link LmdbStore to Store--><g id="link_LmdbStore_Store"><path codeLine="12" d="M62.02,89 C62.78,100.59 63.74,115.03 64.63,128.6 " fill="none" id="LmdbStore-to-Store" style="stroke:#181818;stroke-width:1.0;stroke-dasharray:7.0,7.0;"/><polygon fill="none" points="71.63,128.26,65.96,148.68,57.66,129.18,71.63,128.26" style="stroke:#181818;stroke-width:1.0;"/></g><!--MD5=[e2bd7e9195bde8dd129ab61a4dfe4489]
link Ledger to RollbackVisitor--><g id="link_Ledger_RollbackVisitor"><path codeLine="14" d="M280.41,89 C266.89,105.28 248.7,127.19 234.41,144.41 " fill="none" id="Ledger-to-RollbackVisitor" style="stroke:#181818;stroke-width:1.0;"/><polygon fill="#181818" points="230.86,148.68,239.693,144.3235,234.0595,144.8377,233.5453,139.2043,230.86,148.68" style="stroke:#181818;stroke-width:1.0;"/></g><!--MD5=[7cc35fd4cf3ccf32a1a05e90bc1309ec]
link Ledger to LedgerProcessor--><g id="link_Ledger_LedgerProcessor"><path codeLine="15" d="M318.59,89 C332.11,105.28 350.3,127.19 364.59,144.41 " fill="none" id="Ledger-to-LedgerProcessor" style="stroke:#181818;stroke-width:1.0;"/><polygon fill="#181818" points="368.14,148.68,365.4547,139.2043,364.9405,144.8377,359.307,144.3235,368.14,148.68" style="stroke:#181818;stroke-width:1.0;"/></g><!--MD5=[ac79944b7e1a40526e3cd51b97ca07e6]
link Ledger to RepresentativeVisitor--><g id="link_Ledger_RepresentativeVisitor"><path codeLine="16" d="M339.55,80.74 C386.13,97.88 463.79,126.47 519.8,147.08 " fill="none" id="Ledger-to-RepresentativeVisitor" style="stroke:#181818;stroke-width:1.0;"/><polygon fill="#181818" points="524.81,148.93,517.7506,142.0623,520.119,147.1995,514.9818,149.5679,524.81,148.93" style="stroke:#181818;stroke-width:1.0;"/></g><!--MD5=[67429761b583238c0b21d0bcf7ec181e]
link Ledger to Store--><g id="link_Ledger_Store"><path codeLine="17" d="M259.35,84.34 C216.65,103.86 149.51,134.53 107.04,153.94 " fill="none" id="Ledger-to-Store" style="stroke:#181818;stroke-width:1.0;"/><polygon fill="#181818" points="102.24,156.13,112.0884,156.0356,106.7894,154.0556,108.7694,148.7566,102.24,156.13" style="stroke:#181818;stroke-width:1.0;"/></g><!--MD5=[78c003bdc67f0f66c48855bf69601db1]
@startuml "Ledger"
interface Store

class LmdbStore

package Ledger{
class Ledger
class RollbackVisitor
class LedgerProcessor
class RepresentativeVisitor
}

LmdbStore ..|> Store

Ledger - -> RollbackVisitor
Ledger - -> LedgerProcessor
Ledger - -> RepresentativeVisitor
Ledger - -> Store
@enduml

PlantUML version 1.2022.13(Sat Nov 19 13:22:17 UTC 2022)
(GPL source distribution)
Java Runtime: OpenJDK Runtime Environment
JVM: OpenJDK 64-Bit Server VM
Default Encoding: UTF-8
Language: en
Country: null
--></g></svg>